.
..............................Site Info...........................

 -   http://www.scenetime.com  *_*   

SceneTime is going to Close sign up on march/1, hurry up! get in before the doors are closed.

     We care to share . Join us on  http://www.scenetime.com 

    Be the first to get new release at  http://www.scenetime.com

        Seed back for speed


...................................NFO:.................................................[IMG]http://lookpic.com/O/i2/614/m7ho7tcd.jpeg[/IMG]
The Way(I)(2010)(DVDRip)x264-AC3-warhawk

Source                                   : The.Way.2010.NTSC.DVDR-MADE

Encoder                                  : warhawk

General
Unique ID                                : 228581476395889851628516858992349235420 (0xABF730E62EC39AAA874C44AC9E2148DC)
Complete name                            : D:\The.Way.2010.NTSC.DVDR-MADE\The Way(I)(2010)(DVDRip)x264-AC3-warhawk\The Way(I)(2010)(DVDRip)x264-AC3-warhawk.mkv
Format                                   : Matroska
Format version                           : Version 2
File size                                : 1 021 MiB
Duration                                 : 2h 0mn
Overall bit rate                         : 1 181 Kbps
Encoded date                             : UTC 2012-02-22 15:20:12
Writing application                      : mkvmerge v5.3.0 ('I could have danced') built on Feb  9 2012 10:38:07
Writing library                          : libebml v1.2.3 + libmatroska v1.3.0

Video
ID                                       : 2
Format                                   : AVC
Format/Info                              : Advanced Video Codec
Format profile                           : High@L3.1
Format settings, CABAC                   : Yes
Format settings, ReFrames                : 8 frames
Muxing mode                              : Header stripping
Codec ID                                 : V_MPEG4/ISO/AVC
Duration                                 : 2h 0mn
Bit rate                                 : 732 Kbps
Width                                    : 720 pixels
Height                                   : 384 pixels
Display aspect ratio                     : 1.875
Frame rate                               : 23.976 fps
Color space                              : YUV
Chroma subsampling                       : 4:2:0
Bit depth                                : 8 bits
Scan type                                : Progressive
Bits/(Pixel*Frame)                       : 0.110
Stream size                              : 613 MiB (60%)
Writing library                          : x264 core 120 r2164 da19765
Language                                 : English
Default                                  : Yes
Forced                                   : No

Audio
ID                                       : 1
Format                                   : AC-3
Format/Info                              : Audio Coding 3
Mode extension                           : CM (complete main)
Muxing mode                              : Header stripping
Codec ID                                 : A_AC3
Duration                                 : 2h 0mn
Bit rate mode                            : Constant
Bit rate                                 : 448 Kbps
Channel(s)                               : 6 channels
Channel positions                        : Front: L C R, Side: L R, LFE
Sampling rate                            : 48.0 KHz
Bit depth                                : 16 bits
Compression mode                         : Lossy
Stream size                              : 387 MiB (38%)
Default                                  : Yes
Forced                                   : No
 
http://www.imdb.com/title/tt1441912/

A father heads overseas to recover the body of his estranged son who died while traveling the "El camino de Santiago," and decides to take the pilgrimage himself.

Emilio Estevez, Martin Sheen and Deborah Kara Unger

[IMG]http://lookpic.com/O/i2/1565/0LVtDHGr.png[/IMG]
[IMG]http://lookpic.com/O/i2/1259/5qFbB630.png[/IMG]
[IMG]http://lookpic.com/O/i2/1736/IF0kn6X7.png[/IMG]
[IMG]http://lookpic.com/O/i2/1428/zzftFw.png[/IMG]
[IMG]http://lookpic.com/O/i2/1182/GapDf2ax.png[/IMG]
[IMG]http://lookpic.com/O/i2/110/MWTORebO.png[/IMG]